<?xml version="1.0" encoding="UTF-8" standalone="no"?>
<!DOCTYPE svg PUBLIC "-//W3C//DTD SVG 1.1//EN" "http://www.w3.org/Graphics/SVG/1.1/DTD/svg11.dtd">
<svg width="100%" height="100%" viewBox="0 0 2642 1867" version="1.1" xmlns="http://www.w3.org/2000/svg" xmlns:xlink="http://www.w3.org/1999/xlink" xml:space="preserve" style="fill-rule:evenodd;clip-rule:evenodd;stroke-miterlimit:10;">
    <g id="binary_sensor.2e.motion_sensor_cinema">
        <rect x="1443.09" y="1243.5" width="567.391" height="510.709" style="fill:white;"/>
    </g>
    <g id="binary_sensor.2e.motion_sensor_livingroom" transform="matrix(1,0,0,1.0032,0,-8.60538)">
        <rect x="660.557" y="1182.86" width="782.53" height="571.354" style="fill:white;"/>
    </g>
    <g transform="matrix(1,0,0,1.01316,0,-15.5656)">
        <g id="binary_sensor.2e.motion_sensor_kitchen">
            <rect x="966.426" y="699.777" width="476.66" height="483.078" style="fill:white;"/>
        </g>
    </g>
    <g id="binary_sensor.2e.motion_sensor_bedroom">
        <rect x="1443.09" y="703.175" width="583.454" height="540.324" style="fill:white;"/>
    </g>
    <g id="binary_sensor.2e.motion_sensor_entrance" transform="matrix(1.02524,0,0,1.02524,-51.2674,-17.4998)">
        <rect x="1266.42" y="218.434" width="765.023" height="474.985" style="fill:white;"/>
    </g>
    <g id="binary_sensor.2e.motion_sensor_bathroom">
        <rect x="719.45" y="699.759" width="235.579" height="478.27" style="fill:white;"/>
    </g>
    <g id="building.2e.base">
        <g transform="matrix(6.12323e-17,-1,1,6.12323e-17,387.451,2254.12)">
            <path d="M1563.36,1644L2035.39,1642.42L2035.07,1543.67L2066.41,1543.51L2066.89,1673.61L1532.02,1675.5L1532.02,1658.17L1463.03,1658.33L1463.03,1626.83L1550.44,1626.67L1548.39,1054L1400.97,1054.62L1400.97,1045.49L1550.6,1044.86L1550.6,1042.34L1561.31,1042.34L1563.36,1644M1083.29,1046.75L1263.95,1045.96L1263.95,1055.1L1085.5,1055.73L1085.5,1073.37L1011.16,1073.68L1012.73,1628.09L1190.08,1627.61L1190.08,1659.11L483.059,1661L483.059,1652.5L482.586,1528.39L514.086,1528.39L514.402,1621L1001.71,1619.43L999.977,1071.95L932.25,1072.11L932.25,1060.3L932.094,1054.94L1072.11,1054.31L1071.17,811.918L1082.51,811.918L1083.29,1046.75M2066.1,1445.54L2034.76,1445.7L2034.13,1297.65L2065.63,1297.49L2066.1,1445.54M515.031,1056.52L627.961,1056.04L628.117,1067.86L628.117,1072.89L512.824,1073.21L513.297,1253.55L481.797,1253.55L481.168,1051.95L515.031,1051.79L515.031,1056.52M2065.31,1199.37L2033.81,1199.53L2032.71,877.438L1759.6,878.383L1759.44,846.883L2064.05,845.781L2065.31,1199.37M1581.47,847.512L1622.58,847.355L1622.73,878.855L1560.84,879.012L1560.84,902.164L1550.13,902.164L1549.81,821.367L1581.31,821.211L1581.47,847.512M513.93,776.793L480.223,776.953L479.75,642.445L513.457,642.289L513.93,776.793M1082.19,569.68L1527.92,568.422L1527.61,475.336L1580.26,475.076L1580.37,548.102L1580.68,636.145L1549.02,636.305L1548.87,579.762L1081.72,581.336L1082.04,676.465L1070.69,676.465L1070.38,567.633L1082.19,567.633L1082.19,569.68M1069.28,273.105L512.039,275.152L512.352,367.293L478.965,367.449L478.492,243.813L480.539,243.813L1100.62,241.449L1100.78,242.096L1580.26,242.096L1580.26,383.72L1527.44,383.988L1527.29,334.531L1109.44,336.105L1109.75,425.883L1081.72,426.039L1069.91,426.039L1069.28,273.105" style="fill-rule:nonzero;"/>
        </g>
        <g transform="matrix(6.12323e-17,-1,1,6.12323e-17,387.451,2254.12)">
            <path d="M1069.91,426.039L1081.72,426.039L1109.75,425.883L1109.44,336.105L1527.29,334.531L1527.44,383.988L1540.05,383.988L1540.36,475.336L1527.61,475.336L1527.92,568.422L1082.19,569.68L1082.19,567.633L1070.38,567.633L1070.69,676.465L1082.04,676.465L1081.72,581.336L1548.87,579.762L1549.02,636.305L1561.78,636.145L1562.41,821.211L1549.81,821.367L1550.13,902.164L1560.84,902.164L1560.84,879.012L1622.73,878.855L1622.58,866.254L1759.44,865.781L1759.6,878.383L2032.71,877.438L2033.81,1199.53L2046.41,1199.37L2046.73,1297.49L2034.13,1297.65L2034.76,1445.7L2047.2,1445.54L2047.67,1543.51L2035.07,1543.67L2035.39,1642.42L1563.36,1644L1561.31,1042.34L1550.6,1042.34L1550.6,1044.86L1400.97,1045.49L1400.97,1054.62L1548.39,1054L1550.44,1626.67L1463.03,1626.83L1463.03,1639.43L1190.08,1640.22L1190.08,1627.61L1012.73,1628.09L1011.16,1073.68L1085.5,1073.37L1085.5,1055.73L1263.95,1055.1L1263.95,1045.96L1083.29,1046.75L1082.51,811.918L1071.17,811.918L1072.11,1054.31L932.094,1054.94L932.25,1072.11L999.977,1071.95L1001.71,1619.43L514.402,1621L514.086,1528.39L501.484,1528.39L500.699,1253.55L513.297,1253.55L512.824,1073.21L628.117,1072.89L627.961,1056.04L515.031,1056.52L515.031,1051.79L502.43,1051.79L501.328,776.793L513.93,776.793L513.457,642.289L500.855,642.445L499.91,367.449L512.352,367.293L512.039,275.152L1069.28,273.105L1069.91,426.039" style="fill:rgb(0,0,25);fill-opacity:0.0666667;fill-rule:nonzero;"/>
        </g>
        <g transform="matrix(-1.37498,0.00388163,0.00177852,0.630001,1915.86,1753.26)">
            <path d="M1.501,1.502C67.499,1.498 133.5,1.501 199.501,1.497C199.499,10.835 199.5,20.167 199.5,29.498C133.499,29.502 67.501,29.499 1.5,29.503C1.499,20.165 1.499,10.834 1.501,1.502Z" style="fill:rgb(254,254,254);fill-rule:nonzero;"/>
            <path d="M0.333,8.5L0.333,15.5L0.334,32.049L51,32.048L100.5,32.047L150,32.046L200.667,32.044L200.666,15.5L200.667,8.5L200.668,-1.049L150,-1.047L100.5,-1.047L51,-1.046L0.335,-1.044L0.333,8.5ZM51,4.046L100.5,4.046L150,4.045L198.334,4.044L198.333,8.499L198.333,15.5L198.334,26.952L150,26.954L100.5,26.954L51,26.955L2.667,26.957L2.666,15.5L2.666,8.501L2.667,4.048L51,4.046Z"/>
        </g>
        <g transform="matrix(-1.37498,0.00388163,0.00177852,0.630001,1915.86,1753.26)">
            <path d="M8.501,20.874L93.176,20.743L93.172,10.558L8.498,10.689L8.501,20.874Z" style="fill:rgb(0,15,254);"/>
        </g>
        <g transform="matrix(-1.37498,0.00388163,0.00177852,0.630001,1915.86,1753.26)">
            <path d="M0.334,11.501L0.334,15.501L0.334,19.502L0.334,26.047L8.668,26.048L8.667,19.501L8.667,15.5L8.667,11.498L8.667,4.952L0.333,4.951L0.334,11.501ZM6.334,10.044L6.334,11.498L6.334,15.499L6.334,19.501L6.334,20.955L2.667,20.955L2.667,19.501L2.667,15.502L2.667,11.5L2.667,10.044L6.334,10.044Z"/>
        </g>
        <g transform="matrix(-1.37498,0.00388163,0.00177852,0.630001,1915.86,1753.26)">
            <path d="M192.333,11.498L192.333,15.499L192.335,26.049L200.668,26.049L200.666,15.498L200.666,11.499L200.668,4.953L192.334,4.953L192.333,11.498ZM198.333,10.046L198.333,11.498L198.333,15.499L198.334,20.956L194.667,20.956L194.666,15.498L194.666,11.499L194.667,10.045L198.333,10.046Z"/>
        </g>
        <g transform="matrix(-1.37498,0.00388163,0.00177852,0.630001,1915.86,1753.26)">
            <path d="M107.503,20.723L192.177,20.592L192.174,10.407L107.499,10.538L107.503,20.723Z" style="fill:rgb(0,15,254);"/>
        </g>
        <g transform="matrix(-1.37498,0.00388163,0.00177852,0.630001,1915.86,1753.26)">
            <path d="M93.334,15.717L93.334,19.716L93.333,26.262L101.667,26.262L101.666,19.716L101.666,15.716L101.666,11.715L101.665,5.166L93.332,5.166L93.334,15.717ZM99.333,10.259L99.333,11.715L99.333,15.716L99.333,19.717L99.333,21.169L95.667,21.169L95.667,19.716L95.667,15.716L95.666,10.259L99.333,10.259Z"/>
        </g>
        <g transform="matrix(-1.37498,0.00388163,0.00177852,0.630001,1915.86,1753.26)">
            <path d="M99.333,11.715L99.333,15.716L99.333,19.717L99.333,26.262L107.667,26.262L107.666,19.716L107.666,15.717L107.666,11.715L107.666,5.166L99.332,5.166L99.333,11.715ZM105.333,10.259L105.333,11.716L105.333,15.716L105.333,19.717L105.333,21.17L101.666,21.169L101.666,19.716L101.666,15.716L101.666,11.715L101.666,10.259L105.333,10.259Z"/>
        </g>
        <g transform="matrix(-1.37497,0.00510784,0.00234036,0.629999,1439.14,1753.51)">
            <path d="M1.499,1.498C67.5,1.502 133.499,1.5 199.5,1.499C199.499,10.836 199.501,20.168 199.5,29.5C133.501,29.501 67.5,29.497 1.499,29.499C1.5,20.167 1.501,10.836 1.499,1.498Z" style="fill:rgb(254,254,254);fill-rule:nonzero;"/>
            <path d="M0.333,8.501L0.333,15.5L0.332,32.045L51,32.045L100.5,32.046L150,32.046L200.666,32.046L200.667,22.501L200.667,15.501L200.666,8.501L200.667,-1.048L100.5,-1.046L51,-1.046L0.332,-1.048L0.333,8.501ZM51,4.047L100.5,4.047L198.333,4.045L198.333,8.501L198.333,15.501L198.333,22.501L198.333,26.953L150,26.954L100.5,26.953L51,26.952L2.666,26.953L2.667,15.501L2.667,8.5L2.666,4.044L51,4.047Z"/>
        </g>
        <g transform="matrix(-1.37497,0.00510784,0.00234036,0.629999,1439.14,1753.51)">
            <path d="M8.503,20.869L93.174,20.741L93.171,10.555L8.499,10.684L8.503,20.869Z" style="fill:rgb(0,15,254);"/>
        </g>
        <g transform="matrix(-1.37497,0.00510784,0.00234036,0.629999,1439.14,1753.51)">
            <path d="M0.333,11.498L0.333,15.498L0.333,26.042L4.5,26.046L6,26.046L8.667,26.043L8.666,15.5L8.666,11.501L8.668,4.955L6.001,4.954L4.501,4.954L3.001,4.955L0.335,4.953L0.333,11.498ZM3.001,10.047L4.501,10.047L6.001,10.046L6.334,10.047L6.333,11.499L6.333,15.499L6.333,20.953L6,20.953L4.5,20.954L2.666,20.952L2.666,15.499L2.666,11.5L2.667,10.047L3.001,10.047Z"/>
        </g>
        <g transform="matrix(-1.37497,0.00510784,0.00234036,0.629999,1439.14,1753.51)">
            <path d="M192.334,26.051L195.001,26.047L196.501,26.047L198.001,26.046L200.668,26.042L200.665,4.955L197.999,4.954L196.499,4.954L194.999,4.954L192.332,4.953L192.334,26.051ZM194.999,10.047L196.499,10.046L197.999,10.046L198.333,10.046L198.334,20.953L198,20.953L196.5,20.954L195,20.955L194.667,20.955L194.666,10.047L194.999,10.047Z"/>
        </g>
        <g transform="matrix(-1.37497,0.00510784,0.00234036,0.629999,1439.14,1753.51)">
            <path d="M107.501,20.724L192.176,20.595L192.173,10.41L107.498,10.539L107.501,20.724Z" style="fill:rgb(0,15,254);"/>
        </g>
        <g transform="matrix(-1.37497,0.00510784,0.00234036,0.629999,1439.14,1753.51)">
            <path d="M93.334,15.715L93.334,19.715L93.332,26.264L95.999,26.261L97.499,26.261L101.666,26.265L101.666,19.715L101.666,15.714L101.667,11.714L101.667,5.167L99,5.17L97.501,5.17L93.333,5.166L93.334,15.715ZM97.5,10.262L99.001,10.262L99.334,10.262L99.334,11.713L99.333,15.713L99.333,19.714L99.332,21.17L97.499,21.168L95.999,21.168L95.667,21.169L95.667,19.717L95.667,15.715L95.667,10.261L97.5,10.262Z"/>
        </g>
        <g transform="matrix(-1.37497,0.00510784,0.00234036,0.629999,1439.14,1753.51)">
            <path d="M99.334,11.713L99.333,15.713L99.333,19.714L99.332,26.265L102,26.262L103.499,26.261L105,26.26L107.666,26.257L107.666,19.713L107.667,15.714L107.667,11.715L107.667,5.17L105.001,5.168L103.5,5.168L102,5.169L99.334,5.167L99.334,11.713ZM102,10.261L103.5,10.261L105,10.261L105.334,10.261L105.334,11.714L105.333,15.713L105.333,19.712L105.333,21.167L104.999,21.168L103.499,21.168L101.999,21.169L101.666,21.17L101.666,19.715L101.666,15.714L101.667,11.714L101.667,10.261L102,10.261Z"/>
        </g>
        <g transform="matrix(-1.37497,0.00510784,0.00234036,0.629999,1029.71,1753.02)">
            <path d="M1.501,1.502C67.5,1.5 133.501,1.498 199.499,1.502C199.501,10.834 199.5,20.166 199.499,29.497C133.5,29.499 67.499,29.501 1.501,29.503C1.499,20.165 1.5,10.833 1.501,1.502Z" style="fill:rgb(254,254,254);fill-rule:nonzero;"/>
            <path d="M0.333,15.5L0.333,22.501L0.334,32.049L200.665,32.044L200.667,15.5L200.667,8.501L200.666,-1.044L150,-1.046L100.5,-1.047L0.335,-1.045L0.333,15.5ZM100.5,4.046L150,4.047L198.333,4.049L198.334,8.502L198.333,15.5L198.332,26.951L2.667,26.957L2.667,22.5L2.667,15.5L2.668,4.048L100.5,4.046Z"/>
        </g>
        <g transform="matrix(-1.37497,0.00510784,0.00234036,0.629999,1029.71,1753.02)">
            <path d="M8.502,20.873L93.177,20.745L93.173,10.559L8.499,10.688L8.502,20.873Z" style="fill:rgb(0,15,254);"/>
        </g>
        <g transform="matrix(-1.37497,0.00510784,0.00234036,0.629999,1029.71,1753.02)">
            <path d="M0.334,15.502L0.333,19.5L0.331,26.049L2.999,26.045L4.499,26.045L8.665,26.049L8.667,19.503L8.667,15.5L8.667,4.951L6,4.954L4.5,4.954L0.333,4.95L0.334,15.502ZM4.5,10.047L6.001,10.047L6.334,10.046L6.334,15.5L6.334,19.501L6.333,20.954L4.499,20.953L2.999,20.953L2.666,20.953L2.667,19.503L2.667,15.502L2.667,10.045L4.5,10.047Z"/>
        </g>
        <g transform="matrix(-1.37497,0.00510784,0.00234036,0.629999,1029.71,1753.02)">
            <path d="M192.333,11.499L192.333,15.501L192.333,26.046L195,26.048L196.5,26.047L198,26.047L200.667,26.049L200.666,15.5L200.667,11.5L200.669,4.951L198.001,4.954L196.501,4.954L192.335,4.95L192.333,11.499ZM196.501,10.046L198.001,10.046L198.334,10.046L198.333,11.497L198.333,15.5L198.333,20.955L198,20.954L196.5,20.955L195,20.955L194.666,20.955L194.666,15.501L194.666,11.501L194.667,10.045L196.501,10.046Z"/>
        </g>
        <g transform="matrix(-1.37497,0.00510784,0.00234036,0.629999,1029.71,1753.02)">
            <path d="M107.501,20.721L192.175,20.593L192.172,10.408L107.497,10.536L107.501,20.721Z" style="fill:rgb(0,15,254);"/>
        </g>
        <g transform="matrix(-1.37497,0.00510784,0.00234036,0.629999,1029.71,1753.02)">
            <path d="M93.335,26.26L96.001,26.261L97.501,26.261L99.001,26.261L101.668,26.262L101.666,5.173L97.5,5.169L95.999,5.169L93.332,5.172L93.335,26.26ZM96,10.262L97.499,10.262L99.333,10.263L99.334,21.168L99.001,21.168L97.501,21.168L96.001,21.169L95.668,21.169L95.666,10.262L96,10.262Z"/>
        </g>
        <g transform="matrix(-1.37497,0.00510784,0.00234036,0.629999,1029.71,1753.02)">
            <path d="M99.335,26.261L102.001,26.262L103.501,26.262L105.001,26.262L107.668,26.263L107.666,5.165L104.999,5.168L103.499,5.169L101.999,5.17L99.333,5.173L99.335,26.261ZM102,10.263L103.5,10.262L105,10.261L105.333,10.261L105.334,21.169L105.001,21.169L103.501,21.169L102.001,21.17L101.668,21.169L101.667,10.263L102,10.263Z"/>
        </g>
        <g transform="matrix(0.45675,-0.00152902,-0.00210899,-0.63,771.43,694.887)">
            <path d="M1.499,1.5C67.497,1.501 133.504,1.502 199.501,1.497C199.502,10.835 199.502,20.167 199.502,29.498C166.37,29.498 133.24,29.499 100.111,29.5C67.24,29.501 34.37,29.502 1.5,29.501C1.5,20.164 1.5,10.832 1.499,1.5Z" style="fill:rgb(254,254,254);fill-rule:nonzero;stroke:black;stroke-width:3px;"/>
        </g>
        <g transform="matrix(0.45675,-0.00152902,-0.00210899,-0.63,771.43,694.887)">
            <path d="M8.501,15.782C69.838,15.688 131.165,15.595 192.502,15.502" style="fill-rule:nonzero;"/>
            <path d="M192.494,12.882L8.494,13.161L8.509,18.402L192.509,18.122L192.494,12.882Z" style="fill:rgb(0,15,254);"/>
        </g>
        <g transform="matrix(0.45675,-0.00152902,-0.00210899,-0.63,771.43,694.887)">
            <path d="M1.501,7.502C3.503,7.498 5.504,7.499 7.496,7.5C7.504,12.833 7.503,18.165 7.502,23.497C5.501,23.502 3.499,23.501 1.498,23.499C1.499,18.167 1.5,12.835 1.501,7.502Z" style="fill-rule:nonzero;stroke:black;stroke-width:3px;"/>
        </g>
        <g transform="matrix(0.45675,-0.00152902,-0.00210899,-0.63,771.43,694.887)">
            <path d="M193.5,7.501C195.501,7.503 197.502,7.498 199.503,7.499C199.502,12.832 199.501,18.164 199.5,23.502C197.499,23.501 195.498,23.5 193.497,23.498C193.498,18.166 193.499,12.834 193.5,7.501Z" style="fill-rule:nonzero;stroke:black;stroke-width:3px;"/>
        </g>
        <g transform="matrix(-1.41593,0.00468776,0.00468776,1.41593,954.559,1036.39)">
            <path d="M0.5,0.5C55.176,0.501 99.501,45.273 99.499,100.501" style="fill:none;stroke:rgb(99,99,99);stroke-width:1px;"/>
        </g>
        <g transform="matrix(6.12323e-17,-1,1,6.12323e-17,387.451,2254.12)">
            <path d="M1076.14,567.578C1123.34,567.422 1170.53,567.266 1217.73,567.109C1217.71,562.387 1217.7,557.668 1217.68,552.949C1170.48,553.105 1123.29,553.262 1076.09,553.418C1076.11,558.137 1076.12,562.855 1076.14,567.578Z" style="fill:rgb(99,99,99);fill-rule:nonzero;"/>
        </g>
        <g transform="matrix(0.925312,-0.00336154,-0.00228871,-0.63,1023.65,693.11)">
            <path d="M1.499,1.501C67.499,1.502 133.498,1.503 199.498,1.498C199.5,10.836 199.502,20.168 199.5,29.499C133.5,29.498 67.5,29.503 1.501,29.502C1.499,20.164 1.501,10.832 1.499,1.501Z" style="fill:rgb(254,254,254);fill-rule:nonzero;stroke:black;stroke-width:3px;"/>
        </g>
        <g transform="matrix(0.925312,-0.00336154,-0.00228871,-0.63,1023.65,693.11)">
            <path d="M93.173,11.881L72.004,11.914L50.835,11.946L29.666,11.978L8.497,12.011L8.502,19.549L29.671,19.516L50.84,19.485L72.009,19.453L93.178,19.42L93.173,11.881Z" style="fill:rgb(0,15,254);"/>
        </g>
        <g transform="matrix(0.925312,-0.00336154,-0.00228871,-0.63,1023.65,693.11)">
            <path d="M1.501,7.503C3.502,7.498 5.499,7.5 7.5,7.502C7.5,12.834 7.501,18.166 7.501,23.499C5.5,23.503 3.499,23.501 1.498,23.5C1.502,18.167 1.502,12.835 1.501,7.503Z" style="fill:none;stroke:black;stroke-width:3px;"/>
        </g>
        <g transform="matrix(0.925312,-0.00336154,-0.00228871,-0.63,1023.65,693.11)">
            <path d="M193.501,7.501C195.498,7.503 197.499,7.498 199.5,7.5C199.501,12.832 199.501,18.165 199.502,23.497C197.501,23.502 195.5,23.5 193.499,23.498C193.498,18.166 193.502,12.833 193.501,7.501Z" style="fill:none;stroke:black;stroke-width:3px;"/>
        </g>
        <g transform="matrix(0.925312,-0.00336154,-0.00228871,-0.63,1023.65,693.11)">
            <path d="M192.172,11.731L171.003,11.764L149.834,11.796L128.665,11.828L107.496,11.861L107.502,19.399L128.671,19.366L149.839,19.335L171.008,19.303L192.177,19.27L192.172,11.731Z" style="fill:rgb(0,15,254);"/>
        </g>
        <g transform="matrix(0.925312,-0.00336154,-0.00228871,-0.63,1023.65,693.11)">
            <path d="M94.498,7.713C96.499,7.715 98.5,7.717 100.501,7.712C100.502,13.051 100.498,18.383 100.498,23.715C98.502,23.714 96.501,23.712 94.5,23.716C94.499,18.384 94.499,13.046 94.498,7.713Z" style="fill:none;stroke:black;stroke-width:3px;"/>
        </g>
        <g transform="matrix(0.925312,-0.00336154,-0.00228871,-0.63,1023.65,693.11)">
            <path d="M100.501,7.712C102.498,7.714 104.499,7.716 106.5,7.717C106.5,13.05 106.501,18.382 106.502,23.714C104.5,23.713 102.499,23.717 100.498,23.715C100.498,18.383 100.502,13.051 100.501,7.712Z" style="fill:none;stroke:black;stroke-width:3px;"/>
        </g>
        <g transform="matrix(0.00359826,1.36474,0.630001,-0.00166106,2021.32,791.242)">
            <path d="M1.5,1.501C67.501,1.502 133.499,1.503 199.5,1.498C199.5,10.836 199.5,20.167 199.5,29.499C133.499,29.498 67.501,29.503 1.5,29.501C1.5,20.164 1.5,10.832 1.5,1.501Z" style="fill:rgb(254,254,254);fill-rule:nonzero;"/>
            <path d="M51,32.032L100.5,32.031L150,32.03L200.668,32.03L200.668,-1.033L150,-1.03L100.5,-1.029L0.332,-1.03L0.332,32.032L51,32.032ZM2.668,4.031L100.5,4.032L150,4.032L198.332,4.029L198.332,26.968L150,26.968L100.5,26.97L51,26.971L2.668,26.971L2.668,4.031Z"/>
        </g>
        <g transform="matrix(0.00359826,1.36474,0.630001,-0.00166106,2021.32,791.242)">
            <path d="M93.174,20.708L93.171,10.586L8.5,10.716L8.503,20.838L93.174,20.708Z" style="fill:rgb(0,15,254);"/>
        </g>
        <g transform="matrix(0.00359826,1.36474,0.630001,-0.00166106,2021.32,791.242)">
            <path d="M8.669,26.034L8.668,15.498L8.668,11.499L8.67,4.969L4.5,4.968L2.999,4.969L0.33,4.974L0.333,26.03L8.669,26.034ZM2.667,10.031L3,10.03L4.5,10.029L6.332,10.03L6.332,11.498L6.331,15.498L6.332,20.971L2.669,20.969L2.667,10.031Z"/>
        </g>
        <g transform="matrix(0.00359826,1.36474,0.630001,-0.00166106,2021.32,791.242)">
            <path d="M196.5,26.032L198.001,26.031L200.67,26.025L200.667,4.97L192.331,4.966L192.332,15.501L192.332,19.5L192.33,26.031L196.5,26.032ZM194.668,19.502L194.669,15.501L194.668,10.028L198.331,10.03L198.333,20.969L198,20.969L196.5,20.97L194.668,20.97L194.668,19.502Z"/>
        </g>
        <g transform="matrix(0.00359826,1.36474,0.630001,-0.00166106,2021.32,791.242)">
            <path d="M192.174,20.558L192.171,10.436L107.5,10.566L107.503,20.689L192.174,20.558Z" style="fill:rgb(0,15,254);"/>
        </g>
        <g transform="matrix(0.00359826,1.36474,0.630001,-0.00166106,2021.32,791.242)">
            <path d="M101.67,26.247L101.667,5.179L99,5.184L97.5,5.185L93.331,5.184L93.332,15.714L93.332,19.712L93.33,26.242L101.67,26.247ZM95.669,19.714L95.669,15.714L95.668,10.246L97.501,10.247L99.001,10.246L99.331,10.245L99.333,21.184L95.668,21.182L95.669,19.714Z"/>
        </g>
        <g transform="matrix(0.00359826,1.36474,0.630001,-0.00166106,2021.32,791.242)">
            <path d="M103.5,26.247L105.001,26.245L107.669,26.241L107.668,15.713L107.668,11.715L107.67,5.185L99.331,5.181L99.334,26.246L103.5,26.247ZM101.668,10.243L105.332,10.245L105.332,11.713L105.332,15.713L105.332,21.184L105,21.184L103.5,21.185L101.669,21.185L101.668,10.243Z"/>
        </g>
        <g transform="matrix(0.00531442,1.37025,-1.37025,0.00531442,1573.04,852.725)">
            <path d="M0.5,0.5C55.177,0.499 99.501,45.271 99.501,100.501" style="fill:none;stroke:rgb(99,99,99);stroke-width:1px;"/>
        </g>
        <g transform="matrix(6.12323e-17,-1,1,6.12323e-17,387.451,2254.12)">
            <path d="M1400.86,1048.57C1401.04,1094.24 1401.22,1139.92 1401.39,1185.59C1396.83,1185.61 1392.26,1185.63 1387.69,1185.64C1387.52,1139.97 1387.34,1094.3 1387.16,1048.62C1391.73,1048.61 1396.3,1048.59 1400.86,1048.57Z" style="fill:rgb(99,99,99);fill-rule:nonzero;"/>
        </g>
        <g transform="matrix(0.490612,-0.00173806,-0.00223186,-0.63,1833.02,207.561)">
            <path d="M1.503,1.503C67.5,1.501 133.497,1.499 199.502,1.502C199.496,10.834 199.499,20.166 199.502,29.497C133.497,29.5 67.5,29.502 1.503,29.498C1.5,20.166 1.498,10.835 1.503,1.503Z" style="fill:rgb(254,254,254);fill-rule:nonzero;stroke:black;stroke-width:3px;"/>
        </g>
        <g transform="matrix(0.490612,-0.00173806,-0.00223186,-0.63,1833.02,207.561)">
            <path d="M8.503,15.782C69.833,15.687 131.164,15.592 192.503,15.497" style="fill-rule:nonzero;"/>
            <path d="M192.496,12.809L8.496,13.093L8.509,18.471L192.51,18.186L192.496,12.809Z" style="fill:rgb(0,15,254);"/>
        </g>
        <g transform="matrix(0.490612,-0.00173806,-0.00223186,-0.63,1833.02,207.561)">
            <path d="M1.498,7.499C3.497,7.5 5.503,7.5 7.502,7.501C7.502,12.833 7.502,18.166 7.503,23.498C5.496,23.497 3.498,23.503 1.499,23.502C1.499,18.17 1.499,12.831 1.498,7.499Z" style="fill-rule:nonzero;stroke:black;stroke-width:3px;"/>
        </g>
        <g transform="matrix(0.490612,-0.00173806,-0.00223186,-0.63,1833.02,207.561)">
            <path d="M193.502,7.502C195.5,7.503 197.499,7.498 199.497,7.498C199.497,12.831 199.498,18.169 199.498,23.501C197.5,23.501 195.501,23.5 193.503,23.499C193.502,18.167 193.502,12.835 193.502,7.502Z" style="fill-rule:nonzero;stroke:black;stroke-width:3px;"/>
        </g>
        <g transform="matrix(0.490612,-0.00173806,-0.00223186,-0.63,1586.85,207.394)">
            <path d="M1.5,1.498C67.497,1.502 133.502,1.5 199.499,1.498C199.502,10.836 199.497,20.167 199.499,29.499C133.502,29.501 67.497,29.497 1.5,29.499C1.498,20.168 1.503,10.836 1.5,1.498Z" style="fill:rgb(254,254,254);fill-rule:nonzero;stroke:black;stroke-width:3px;"/>
        </g>
        <g transform="matrix(0.490612,-0.00173806,-0.00223186,-0.63,1586.85,207.394)">
            <path d="M8.5,15.777C69.831,15.689 131.17,15.594 192.501,15.499" style="fill-rule:nonzero;"/>
            <path d="M192.494,12.81L100.494,12.952L54.493,13.021L8.494,13.089L8.507,18.466L54.506,18.398L100.507,18.329L192.508,18.188L192.494,12.81Z" style="fill:rgb(0,15,254);"/>
        </g>
        <g transform="matrix(0.490612,-0.00173806,-0.00223186,-0.63,1586.85,207.394)">
            <path d="M1.504,7.5C3.502,7.501 5.501,7.502 7.499,7.502C7.5,12.835 7.5,18.167 7.5,23.499C5.502,23.499 3.503,23.498 1.497,23.497C1.497,18.165 1.496,12.833 1.504,7.5Z" style="fill-rule:nonzero;stroke:black;stroke-width:3px;"/>
        </g>
        <g transform="matrix(0.490612,-0.00173806,-0.00223186,-0.63,1586.85,207.394)">
            <path d="M193.499,7.498C195.498,7.498 197.496,7.499 199.503,7.5C199.503,12.832 199.503,18.164 199.504,23.503C197.497,23.502 195.499,23.502 193.5,23.501C193.5,18.169 193.5,12.836 193.499,7.498Z" style="fill-rule:nonzero;stroke:black;stroke-width:3px;"/>
        </g>
        <g transform="matrix(0.00486929,1.37025,-1.37025,0.00486929,1396.84,494.031)">
            <path d="M0.499,0.5C55.177,0.501 99.501,45.273 99.501,100.5" style="fill:none;stroke:rgb(99,99,99);stroke-width:1px;"/>
        </g>
        <g transform="matrix(6.12323e-17,-1,1,6.12323e-17,387.451,2254.12)">
            <path d="M1759.6,872.363C1759.77,918.035 1759.93,963.711 1760.09,1009.39C1755.52,1009.4 1750.95,1009.42 1746.39,1009.43C1746.22,963.762 1746.06,918.086 1745.9,872.41C1750.47,872.395 1755.04,872.379 1759.6,872.363Z" style="fill:rgb(99,99,99);fill-rule:nonzero;"/>
        </g>
        <g transform="matrix(-1.40175,0.00483349,-0.00483349,-1.40175,1430.25,838.939)">
            <path d="M71.144,30.444C88.683,48.487 99.499,73.217 99.5,100.499" style="fill:none;stroke:rgb(99,99,99);stroke-width:1px;"/>
        </g>
        <g transform="matrix(6.12323e-17,-1,1,6.12323e-17,387.451,2254.12)">
            <path d="M1460.71,958.195C1457.48,954.988 1454.25,951.781 1451.02,948.574C1454.31,945.262 1457.59,941.953 1460.88,938.645C1464.11,941.852 1467.34,945.059 1470.57,948.27C1467.28,951.578 1463.99,954.887 1460.71,958.195Z" style="fill:rgb(99,99,99);fill-rule:nonzero;"/>
        </g>
        <g transform="matrix(6.12323e-17,-1,1,6.12323e-17,387.451,2254.12)">
            <path d="M1544.01,1024.94C1542.04,1026.94 1540.07,1028.93 1538.09,1030.93C1512.85,1005.95 1487.61,980.965 1462.38,955.98C1464.35,953.988 1466.32,951.996 1468.29,950.004C1493.53,974.984 1518.77,999.965 1544.01,1024.94Z" style="fill:rgb(0,15,254);fill-rule:nonzero;"/>
        </g>
        <g transform="matrix(6.12323e-17,-1,1,6.12323e-17,387.451,2254.12)">
            <path d="M1545.46,1042.35C1542.23,1039.14 1539,1035.93 1535.77,1032.73C1539.06,1029.42 1542.34,1026.11 1545.63,1022.8C1548.86,1026.01 1552.09,1029.21 1555.32,1032.42C1552.04,1035.73 1548.75,1039.04 1545.46,1042.35Z" style="fill:rgb(99,99,99);fill-rule:nonzero;"/>
        </g>
        <g transform="matrix(9.64415e-15,-157.501,157.501,9.64415e-15,1648.14,456.07)">
            <path d="M-1.507,-2.424L-1.509,-2.899" style="fill:none;stroke:rgb(127,127,127);stroke-width:0.01px;"/>
        </g>
        <g transform="matrix(9.64415e-15,-157.501,157.501,9.64415e-15,1648.14,456.07)">
            <path d="M-1.507,-2.424L-1.51,-3.349" style="fill:none;stroke:rgb(127,127,127);stroke-width:0.01px;"/>
        </g>
    </g>
    <g id="main.2e.light.2e.cinema" transform="matrix(1,0,0,1,1488.03,1640.83)">
        <g id="light.2e.cinema" transform="matrix(3.50352,0,0,3.50352,-6.00703,-6.00703)">
            <path d="M12,2C6.514,2 2,6.514 2,12C2,17.486 6.514,22 12,22C17.486,22 22,17.486 22,12C22,6.514 17.486,2 12,2Z" style="fill:white;"/>
        </g>
        <g id="light.2e.cinema.2e.circle" transform="matrix(3.50352,0,0,3.50352,-6.00703,-6.00703)">
            <path d="M12,20C7.611,20 4,16.389 4,12C4,7.611 7.611,4 12,4C16.389,4 20,7.611 20,12C20,16.389 16.389,20 12,20M12,2C6.514,2 2,6.514 2,12C2,17.486 6.514,22 12,22C17.486,22 22,17.486 22,12C22,6.514 17.486,2 12,2Z" style="fill:rgb(76,76,76);fill-rule:nonzero;"/>
        </g>
        <g transform="matrix(2.12955,0,0,2.12955,10.4805,13.4805)">
            <g id="light.2e.cinema.2e.lightbulb">
                <path d="M12,2C15.84,2 19,5.16 19,9C19,11.38 17.81,13.47 16,14.74L16,17C16,17.549 15.549,18 15,18L9,18C8.451,18 8,17.549 8,17L8,14.74C6.19,13.47 5,11.38 5,9C5,5.16 8.16,2 12,2M9,21L9,20L15,20L15,21C15,21.549 14.549,22 14,22L10,22C9.451,22 9,21.549 9,21M12,4C9.257,4 7,6.257 7,9C7,11.05 8.23,12.81 10,13.58L10,16L14,16L14,13.58C15.77,12.81 17,11.05 17,9C17,6.257 14.743,4 12,4Z" style="fill:rgb(76,76,76);fill-rule:nonzero;"/>
            </g>
        </g>
    </g>
    <g id="main.2e.light.2e.bedroom" transform="matrix(1,0,0,1,1690.75,945.293)">
        <g id="light.2e.bedroom" transform="matrix(3.50352,0,0,3.50352,-6.00703,-6.00703)">
            <path d="M12,2C6.514,2 2,6.514 2,12C2,17.486 6.514,22 12,22C17.486,22 22,17.486 22,12C22,6.514 17.486,2 12,2Z" style="fill:white;"/>
        </g>
        <g id="light.2e.bedroom.2e.circle" transform="matrix(3.50352,0,0,3.50352,-6.00703,-6.00703)">
            <path d="M12,20C7.611,20 4,16.389 4,12C4,7.611 7.611,4 12,4C16.389,4 20,7.611 20,12C20,16.389 16.389,20 12,20M12,2C6.514,2 2,6.514 2,12C2,17.486 6.514,22 12,22C17.486,22 22,17.486 22,12C22,6.514 17.486,2 12,2Z" style="fill:rgb(76,76,76);fill-rule:nonzero;"/>
        </g>
        <g transform="matrix(2.12955,0,0,2.12955,10.4805,13.4805)">
            <g id="light.2e.bedroom.2e.lightbulb">
                <path d="M12,2C15.84,2 19,5.16 19,9C19,11.38 17.81,13.47 16,14.74L16,17C16,17.549 15.549,18 15,18L9,18C8.451,18 8,17.549 8,17L8,14.74C6.19,13.47 5,11.38 5,9C5,5.16 8.16,2 12,2M9,21L9,20L15,20L15,21C15,21.549 14.549,22 14,22L10,22C9.451,22 9,21.549 9,21M12,4C9.257,4 7,6.257 7,9C7,11.05 8.23,12.81 10,13.58L10,16L14,16L14,13.58C15.77,12.81 17,11.05 17,9C17,6.257 14.743,4 12,4Z" style="fill:rgb(76,76,76);fill-rule:nonzero;"/>
            </g>
        </g>
    </g>
    <g id="main.2e.light.2e.kitchen" transform="matrix(1,0,0,1,1169.99,897.298)">
        <g id="light.2e.kitchen" transform="matrix(3.50352,0,0,3.50352,-6.00703,-6.00703)">
            <path d="M12,2C6.514,2 2,6.514 2,12C2,17.486 6.514,22 12,22C17.486,22 22,17.486 22,12C22,6.514 17.486,2 12,2Z" style="fill:white;"/>
        </g>
        <g id="light.2e.kitchen.2e.circle" transform="matrix(3.50352,0,0,3.50352,-6.00703,-6.00703)">
            <path d="M12,20C7.611,20 4,16.389 4,12C4,7.611 7.611,4 12,4C16.389,4 20,7.611 20,12C20,16.389 16.389,20 12,20M12,2C6.514,2 2,6.514 2,12C2,17.486 6.514,22 12,22C17.486,22 22,17.486 22,12C22,6.514 17.486,2 12,2Z" style="fill:rgb(76,76,76);fill-rule:nonzero;"/>
        </g>
        <g transform="matrix(2.12955,0,0,2.12955,10.4805,13.4805)">
            <g id="light.2e.kitchen.2e.lightbulb">
                <path d="M12,2C15.84,2 19,5.16 19,9C19,11.38 17.81,13.47 16,14.74L16,17C16,17.549 15.549,18 15,18L9,18C8.451,18 8,17.549 8,17L8,14.74C6.19,13.47 5,11.38 5,9C5,5.16 8.16,2 12,2M9,21L9,20L15,20L15,21C15,21.549 14.549,22 14,22L10,22C9.451,22 9,21.549 9,21M12,4C9.257,4 7,6.257 7,9C7,11.05 8.23,12.81 10,13.58L10,16L14,16L14,13.58C15.77,12.81 17,11.05 17,9C17,6.257 14.743,4 12,4Z" style="fill:rgb(76,76,76);fill-rule:nonzero;"/>
            </g>
        </g>
    </g>
    <g id="main.2e.light.2e.livingroom" transform="matrix(1,0,0,1,1032.56,1429.87)">
        <g id="light.2e.livingroom" transform="matrix(3.50352,0,0,3.50352,-6.00703,-6.00703)">
            <path d="M12,2C6.514,2 2,6.514 2,12C2,17.486 6.514,22 12,22C17.486,22 22,17.486 22,12C22,6.514 17.486,2 12,2Z" style="fill:white;"/>
        </g>
        <g id="light.2e.livingroom.2e.circle" transform="matrix(3.50352,0,0,3.50352,-6.00703,-6.00703)">
            <path d="M12,20C7.611,20 4,16.389 4,12C4,7.611 7.611,4 12,4C16.389,4 20,7.611 20,12C20,16.389 16.389,20 12,20M12,2C6.514,2 2,6.514 2,12C2,17.486 6.514,22 12,22C17.486,22 22,17.486 22,12C22,6.514 17.486,2 12,2Z" style="fill:rgb(76,76,76);fill-rule:nonzero;"/>
        </g>
        <g transform="matrix(2.12955,0,0,2.12955,10.4805,13.4805)">
            <g id="light.2e.livingroom.2e.lightbulb">
                <path d="M12,2C15.84,2 19,5.16 19,9C19,11.38 17.81,13.47 16,14.74L16,17C16,17.549 15.549,18 15,18L9,18C8.451,18 8,17.549 8,17L8,14.74C6.19,13.47 5,11.38 5,9C5,5.16 8.16,2 12,2M9,21L9,20L15,20L15,21C15,21.549 14.549,22 14,22L10,22C9.451,22 9,21.549 9,21M12,4C9.257,4 7,6.257 7,9C7,11.05 8.23,12.81 10,13.58L10,16L14,16L14,13.58C15.77,12.81 17,11.05 17,9C17,6.257 14.743,4 12,4Z" style="fill:rgb(76,76,76);fill-rule:nonzero;"/>
            </g>
        </g>
    </g>
</svg>
